<svg width="309" height="94" viewBox="0 0 309 94" fill="none" xmlns="http://www.w3.org/2000/svg">
<path fill-rule="evenodd" clip-rule="evenodd" d="M36.7393 0.881599C38.9993 -0.277392 41.6757 -0.294606 43.9502 0.8357L77.5146 17.5154C80.2345 18.867 81.9541 21.6422 81.9541 24.6795V67.9607C81.954 70.9693 80.2659 73.7232 77.585 75.0886L44.0215 92.1843C41.7081 93.3625 38.967 93.3444 36.6689 92.1365L4.27734 75.1111C1.64713 73.7284 0.000119917 71.0015 0 68.03V24.6091C0.000181185 21.6085 1.67959 18.8602 4.34961 17.491L36.7393 0.881599ZM43.8623 13.0994C41.6364 12.005 39.0287 12.0049 36.8027 13.0994L15.3984 23.6248C12.6621 24.9703 10.9278 27.7542 10.9277 30.8035V59.6628C10.9278 62.6203 12.5599 65.3364 15.1709 66.7253L36.5752 78.1111C38.9241 79.3606 41.7409 79.3606 44.0898 78.1111L65.4932 66.7253C68.1042 65.3364 69.7363 62.6203 69.7363 59.6628V30.8035C69.7363 27.7543 68.0029 24.9703 65.2666 23.6248L43.8623 13.0994ZM57.4736 28.2146C60.5311 26.8124 64.1466 28.1542 65.5488 31.2117C66.9507 34.2689 65.6087 37.8836 62.5518 39.2859L51.6289 44.2957C48.5087 45.7267 46.5078 48.8453 46.5078 52.2781V66.117C46.5077 69.4804 43.7814 72.2067 40.418 72.2068C37.0545 72.2068 34.3282 69.4804 34.3281 66.117V52.3875C34.3281 48.9548 32.3272 45.8361 29.207 44.405L18.0879 39.3054C15.0284 37.9022 13.6857 34.2839 15.0889 31.2244C16.4908 28.1681 20.1037 26.8249 23.1621 28.2224L40.3545 36.0789C40.3643 36.0834 40.3756 36.076 40.376 36.0652C40.3762 36.0597 40.3798 36.055 40.3848 36.0525L57.4736 28.2146Z" fill="white"/>
<path d="M121.194 32.0317L120.186 37.8397H112.698V64.5277H104.778V37.8397H97.0501V32.0317H121.194ZM131.65 32.0317V51.3757C131.65 52.7837 131.794 53.9517 132.082 54.8797C132.402 55.8077 132.818 56.5597 133.33 57.1357C133.874 57.7117 134.514 58.1277 135.25 58.3837C135.986 58.6077 136.77 58.7197 137.602 58.7197C139.33 58.7197 140.642 58.1117 141.538 56.8957C142.466 55.6477 142.93 53.8077 142.93 51.3757V32.0317H150.85V51.8077C150.85 53.5357 150.61 55.1837 150.13 56.7517C149.65 58.3197 148.85 59.7117 147.73 60.9277C146.642 62.1117 145.218 63.0557 143.458 63.7597C141.698 64.4637 139.538 64.8157 136.978 64.8157C134.514 64.8157 132.434 64.4637 130.738 63.7597C129.074 63.0237 127.73 62.0637 126.706 60.8797C125.682 59.6637 124.93 58.2717 124.45 56.7037C124.002 55.1357 123.778 53.5037 123.778 51.8077V32.0317H131.65ZM156.321 32.0317H164.241V64.5277H156.321V32.0317ZM192.174 31.5997C193.294 31.5997 194.366 31.7117 195.39 31.9357C196.414 32.1277 197.342 32.3677 198.174 32.6557C199.038 32.9117 199.758 33.1837 200.334 33.4717C200.942 33.7597 201.358 33.9837 201.582 34.1437L199.23 38.2717L198.606 37.9357C198.19 37.7117 197.646 37.4557 196.974 37.1677C196.302 36.8797 195.566 36.6237 194.766 36.3997C193.966 36.1757 193.198 36.0637 192.462 36.0637C191.31 36.0637 190.302 36.3357 189.438 36.8797C188.606 37.4237 188.19 38.2717 188.19 39.4237C188.19 40.8637 188.654 42.0477 189.582 42.9757C190.51 43.8717 191.966 44.7037 193.95 45.4717C195.23 45.9837 196.366 46.5277 197.358 47.1037C198.382 47.6477 199.246 48.2877 199.95 49.0237C200.654 49.7597 201.182 50.6077 201.534 51.5677C201.918 52.5277 202.11 53.6797 202.11 55.0237C202.11 56.2397 201.87 57.4397 201.39 58.6237C200.942 59.8077 200.254 60.8637 199.326 61.7917C198.43 62.6877 197.31 63.4237 195.966 63.9997C194.622 64.5437 193.07 64.8157 191.31 64.8157C190.062 64.8157 188.878 64.6877 187.758 64.4317C186.638 64.1757 185.614 63.8877 184.686 63.5677C183.79 63.2157 183.006 62.8637 182.334 62.5117C181.694 62.1597 181.214 61.8877 180.894 61.6957L182.91 57.2797L183.774 57.7597C184.35 58.0797 185.054 58.4317 185.886 58.8157C186.718 59.1997 187.598 59.5517 188.526 59.8717C189.454 60.1917 190.254 60.3517 190.926 60.3517C192.622 60.3517 193.886 59.9357 194.718 59.1037C195.55 58.2717 195.966 57.1037 195.966 55.5997C195.966 54.8957 195.854 54.2877 195.63 53.7757C195.406 53.2317 195.086 52.7677 194.67 52.3837C194.254 51.9997 193.742 51.6637 193.134 51.3757C192.558 51.0557 191.902 50.7517 191.166 50.4637C189.726 49.8557 188.43 49.2477 187.278 48.6397C186.158 48.0317 185.198 47.3437 184.398 46.5757C183.598 45.7757 182.99 44.8797 182.574 43.8877C182.158 42.8637 181.95 41.6477 181.95 40.2397C181.95 39.0557 182.206 37.9517 182.718 36.9277C183.23 35.8717 183.934 34.9597 184.83 34.1917C185.726 33.3917 186.798 32.7677 188.046 32.3197C189.294 31.8397 190.67 31.5997 192.174 31.5997ZM202.809 40.6237H207.129L208.089 35.0077L212.601 33.9997V40.6237H218.505L217.833 44.5117H212.601V58.7197C212.601 59.5517 212.825 60.0957 213.273 60.3517C213.721 60.5757 214.217 60.6877 214.761 60.6877C215.209 60.6877 215.657 60.6557 216.105 60.5917C216.553 60.5277 216.953 60.4477 217.305 60.3517C217.721 60.2557 218.121 60.1437 218.505 60.0157L219.417 63.6157L218.985 63.7597C218.697 63.8877 218.265 64.0317 217.689 64.1917C217.145 64.3197 216.489 64.4317 215.721 64.5277C214.985 64.6557 214.169 64.7197 213.273 64.7197C212.377 64.7197 211.545 64.6237 210.777 64.4317C210.041 64.2397 209.401 63.9357 208.857 63.5197C208.313 63.0717 207.881 62.5117 207.561 61.8397C207.273 61.1677 207.129 60.3357 207.129 59.3437V44.5117H202.809V40.6237ZM237.001 40.6237H242.473V52.9597C242.473 54.8797 242.585 56.4957 242.809 57.8077C243.065 59.0877 243.337 60.1277 243.625 60.9277C243.977 61.8877 244.361 62.6397 244.777 63.1837L240.505 64.9117C240.121 64.5597 239.769 64.1117 239.449 63.5677C239.193 63.1197 238.921 62.5757 238.633 61.9357C238.377 61.2637 238.201 60.4797 238.105 59.5837C237.241 61.4717 236.025 62.8157 234.457 63.6157C232.889 64.4157 231.257 64.8157 229.561 64.8157C227.033 64.8157 225.225 64.0797 224.137 62.6077C223.081 61.1357 222.553 59.1197 222.553 56.5597V40.6237H228.025V56.4637C228.025 57.8077 228.265 58.8637 228.745 59.6317C229.225 60.3997 230.041 60.7837 231.193 60.7837C231.897 60.7837 232.585 60.5917 233.257 60.2077C233.961 59.7917 234.585 59.2157 235.129 58.4797C235.705 57.7437 236.153 56.8637 236.473 55.8397C236.825 54.7837 237.001 53.6157 237.001 52.3357V40.6237ZM266.465 64.9117C266.401 64.8797 266.257 64.7357 266.033 64.4797C265.809 64.1917 265.553 63.8077 265.265 63.3277C265.009 62.8477 264.753 62.2557 264.497 61.5517C264.241 60.8157 264.081 59.9677 264.017 59.0077C263.473 60.9277 262.593 62.3837 261.377 63.3757C260.193 64.3357 258.577 64.8157 256.529 64.8157C255.025 64.8157 253.713 64.5437 252.593 63.9997C251.505 63.4237 250.593 62.6237 249.857 61.5997C249.121 60.5437 248.577 59.2797 248.225 57.8077C247.873 56.3357 247.697 54.7037 247.697 52.9117C247.697 51.0877 247.969 49.4077 248.513 47.8717C249.089 46.3037 249.873 44.9597 250.865 43.8397C251.889 42.7197 253.105 41.8397 254.513 41.1997C255.921 40.5597 257.473 40.2397 259.169 40.2397C259.745 40.2397 260.353 40.2717 260.993 40.3357C261.665 40.3997 262.321 40.4797 262.961 40.5757V29.7277L268.433 30.6877V52.9597C268.433 54.8797 268.545 56.4797 268.769 57.7597C268.993 59.0077 269.249 60.0317 269.537 60.8317C269.825 61.5997 270.081 62.1597 270.305 62.5117C270.561 62.8637 270.705 63.0877 270.737 63.1837L266.465 64.9117ZM257.441 60.9277C258.241 60.9277 258.977 60.6557 259.649 60.1117C260.321 59.5677 260.897 58.8637 261.377 57.9997C261.889 57.1037 262.273 56.0957 262.529 54.9757C262.817 53.8557 262.961 52.7037 262.961 51.5197V44.6077C262.641 44.5117 262.161 44.3997 261.521 44.2717C260.881 44.1437 260.305 44.0797 259.793 44.0797C258.577 44.0797 257.569 44.2877 256.769 44.7037C256.001 45.1197 255.377 45.6957 254.897 46.4317C254.417 47.1677 254.081 48.0477 253.889 49.0717C253.697 50.0957 253.601 51.2157 253.601 52.4317C253.601 53.5517 253.633 54.6237 253.697 55.6477C253.761 56.6717 253.921 57.5837 254.177 58.3837C254.465 59.1517 254.865 59.7757 255.377 60.2557C255.889 60.7037 256.577 60.9277 257.441 60.9277ZM279.911 64.7197C278.215 64.7197 276.919 64.2237 276.023 63.2317C275.127 62.2077 274.679 60.8957 274.679 59.2957V40.6237H280.151V58.8157C280.151 59.5517 280.263 60.0477 280.487 60.3037C280.711 60.5597 281.047 60.6877 281.495 60.6877C281.623 60.6877 281.751 60.6877 281.879 60.6877C282.039 60.6877 282.183 60.6717 282.311 60.6397C282.439 60.6397 282.583 60.6237 282.743 60.5917L283.319 64.0477C283.095 64.1757 282.807 64.2877 282.455 64.3837C282.167 64.4797 281.799 64.5597 281.351 64.6237C280.935 64.6877 280.455 64.7197 279.911 64.7197ZM277.511 29.9677C278.535 29.9677 279.319 30.2717 279.863 30.8797C280.407 31.4877 280.679 32.2717 280.679 33.2317C280.679 34.1917 280.391 34.9917 279.815 35.6317C279.271 36.2717 278.455 36.5917 277.367 36.5917C276.343 36.5917 275.543 36.2877 274.967 35.6797C274.423 35.0397 274.151 34.2717 274.151 33.3757C274.151 32.3837 274.423 31.5677 274.967 30.9277C275.543 30.2877 276.391 29.9677 277.511 29.9677ZM296.656 40.0477C300.336 40.0477 303.008 41.1357 304.672 43.3117C306.336 45.4877 307.168 48.4797 307.168 52.2877C307.168 54.0797 306.944 55.7597 306.496 57.3277C306.048 58.8637 305.36 60.2077 304.432 61.3597C303.536 62.4797 302.4 63.3757 301.024 64.0477C299.648 64.6877 298.048 65.0077 296.224 65.0077C294.4 65.0077 292.816 64.7357 291.472 64.1917C290.16 63.6157 289.072 62.7997 288.208 61.7437C287.344 60.6877 286.704 59.4077 286.288 57.9037C285.904 56.3997 285.712 54.7037 285.712 52.8157C285.712 50.9917 285.936 49.3117 286.384 47.7757C286.832 46.2077 287.504 44.8637 288.4 43.7437C289.328 42.5917 290.48 41.6957 291.856 41.0557C293.232 40.3837 294.832 40.0477 296.656 40.0477ZM296.176 44.0797C295.248 44.0797 294.48 44.2877 293.872 44.7037C293.296 45.1197 292.832 45.7117 292.48 46.4797C292.16 47.2157 291.936 48.0957 291.808 49.1197C291.68 50.1117 291.616 51.1837 291.616 52.3357C291.616 53.5197 291.68 54.6397 291.808 55.6957C291.968 56.7517 292.24 57.6797 292.624 58.4797C293.008 59.2477 293.52 59.8557 294.16 60.3037C294.832 60.7517 295.68 60.9757 296.704 60.9757C297.632 60.9757 298.384 60.7677 298.96 60.3517C299.568 59.9357 300.032 59.3597 300.352 58.6237C300.704 57.8557 300.944 56.9757 301.072 55.9837C301.2 54.9917 301.264 53.9197 301.264 52.7677C301.264 51.5837 301.184 50.4637 301.024 49.4077C300.896 48.3517 300.64 47.4237 300.256 46.6237C299.872 45.8237 299.344 45.1997 298.672 44.7517C298.032 44.3037 297.2 44.0797 296.176 44.0797Z" fill="white"/>
</svg>
